<svg xmlns:dc="http://purl.org/dc/elements/1.1/" xmlns:cc="http://creativecommons.org/ns#" xmlns:rdf="http://www.w3.org/1999/02/22-rdf-syntax-ns#" xmlns:svg="http://www.w3.org/2000/svg" xmlns="http://www.w3.org/2000/svg" xmlns:sodipodi="http://sodipodi.sourceforge.net/DTD/sodipodi-0.dtd" xmlns:inkscape="http://www.inkscape.org/namespaces/inkscape" version="1.1" x="0px" y="0px" viewBox="0 0 100 125"><g transform="translate(0,-952.36218)"><path style="text-indent:0;text-transform:none;direction:ltr;block-progression:tb;baseline-shift:baseline;color:#ffffff;enable-background:accumulate;" d="m 34.710981,978.36221 c -0.550067,0.051 -1.07354,0.3443 -1.407806,0.7867 l -10.918325,14.1614 -4.97425,1.2274 c -0.536507,0.1288 -1.013285,0.4913 -1.282669,0.9755 L 5.3034625,1015.3391 c -0.543605,1.5904 -0.446075,2.6883 1.032391,3.2414 17.6418465,6.1008 57.0541125,9.212 86.2516225,7.1435 0.9598,-0.036 1.6038,-0.1666 2.05346,-0.8053 0.44968,-0.6385 0.48002,-1.5483 0.0739,-2.2157 -5.2031,-6.44 -10.86452,-13.0235 -16.2367,-19.4483 -0.88372,-1.0486 -2.85795,-0.736 -3.37873,0.5349 0,0 -0.50013,1.2638 -1.00111,2.6435 -2.9514,-3.9863 -5.58995,-7.81449 -8.50941,-12.08439 -0.69439,-1.0247 -2.40037,-1.1088 -3.19103,-0.1573 l -9.26024,11.01439 -16.549549,-25.89949 c -0.609084,-0.6231 -1.134504,-0.931 -1.877076,-0.9441 z m -0.969822,6.8289 c 0.213384,2.9244 1.142859,6.2477 3.159744,8.2765 0.496098,-1.4971 0.546617,-3.7766 0.09385,-6.0422 l 13.984213,21.84009 c -1.474259,1.4724 -2.665499,3.0895 -4.066989,4.3427 -3.735443,2.2546 -7.479872,4.5116 -9.135109,6.766 -7.334284,-0.78 -14.108518,-1.7614 -19.834434,-2.9266 4.335904,-1.5632 5.624218,-1.3322 8.947394,-3.8394 l -4.004428,0 c 0.667408,-3.0211 3.003321,-6.0422 2.002214,-9.0633 -3.003321,0 -6.006642,5.0352 -9.009963,10.0703 -0.830133,0.9395 -1.289129,1.5693 -1.56423,2.0456 -1.626663,-0.3846 -3.151718,-0.7818 -4.5362655,-1.1959 l 9.4479465,-17.24529 4.755258,-1.1644 c 0.44243,-0.1034 0.847045,-0.3634 1.126246,-0.7238 z m 30.033207,13.5949 c 3.4582,4.49939 5.74921,9.11859 9.82337,13.40609 3.00314,2.3904 5.84939,5.9662 9.35409,7.4583 -0.0992,-1.6624 -2.91405,-5.169 -6.1005,-8.4339 0.15834,-0.9625 0.4806,-1.8914 0.78207,-2.7378 l 11.23117,13.4375 c -13.71633,0.7498 -29.53447,0.36 -43.986139,-0.8497 5.722089,-5.0935 7.264919,-8.4248 11.794239,-13.8151 -0.99258,2.2257 -1.68558,4.2378 -1.75194,5.3497 4.01649,-3.5344 7.26129,-8.87 8.85364,-13.81509 z" fill="#000000" fill-opacity="1" stroke="none" marker="none" visibility="visible" display="inline" overflow="visible"/></g></svg>